<svg width="205" height="36" viewBox="0 0 205 36" fill="none" xmlns="http://www.w3.org/2000/svg">
<path d="M24.7764 5.97536C24.7764 5.97536 24.9584 6.179 24.9501 6.47196C24.9413 6.76491 24.7993 6.97984 24.7083 7.10644C24.6173 7.23305 24.3756 7.44798 24.3099 7.47398C24.2442 7.49999 24.1732 7.54268 24.0253 7.35327C23.8774 7.16386 23.2941 6.23985 23.2941 6.23985C23.2941 6.23985 22.9896 5.86986 23.1774 5.76043C23.3652 5.651 23.8176 5.6142 24.0681 5.62548C24.3186 5.63677 24.6285 5.80067 24.7764 5.97585V5.97536Z" fill="#EFBB26"/>
<path d="M22.8702 5.88162C22.8702 5.88162 23.022 6.04503 23.238 6.44397C23.454 6.84292 23.5255 6.99504 23.5537 7.04656C23.5819 7.09809 23.8096 7.57457 23.8154 7.92199C23.8213 8.26941 23.8096 8.50446 23.6846 8.8033C23.5596 9.10165 23.3572 9.27389 23.2891 9.32836C23.221 9.38283 22.9986 9.53495 22.9446 9.55507C22.8907 9.57519 22.7111 9.70719 22.5949 9.53789C22.4786 9.3686 22.339 9.0413 22.2933 8.91224C22.2475 8.78318 22.0627 8.18599 21.9688 7.93916C21.8749 7.69234 21.7752 7.41116 21.5363 7.12704C21.2974 6.84292 20.9161 6.44986 20.9161 6.44986C20.9161 6.44986 20.4695 5.9621 20.4009 5.83549C20.4009 5.83549 20.6937 5.72067 20.7706 5.67454C20.8475 5.62841 21.1403 5.42183 21.6866 5.439C22.2329 5.45617 22.5895 5.61958 22.8692 5.88113L22.8702 5.88162Z" fill="#EFBB26"/>
<path d="M20.0063 5.73296C20.0063 5.73296 20.1751 5.92139 20.3688 6.20649C20.5624 6.49159 21.0012 7.16681 21.0012 7.16681C21.0012 7.16681 21.4054 7.8327 21.5217 8.03635C21.638 8.23999 22.0821 9.05211 22.1332 9.15565C22.1843 9.25919 22.3978 9.67531 22.4207 9.72389C22.4436 9.77247 22.5997 10.0595 22.4207 10.2519C22.2417 10.4443 22.1278 10.4987 21.7265 11.0125C21.7265 11.0125 21.5236 11.3319 21.366 11.3069C21.2084 11.2819 21.1724 11.2686 21.0245 10.9472C20.8766 10.6258 20.4743 9.74205 20.4743 9.74205C20.4743 9.74205 20.1528 9.06782 20.0958 8.95005C20.0389 8.83227 19.5354 7.98286 19.3506 7.69285C19.1657 7.40284 18.7133 6.71977 18.6393 6.61378C18.5654 6.50779 18.3095 6.22906 18.4603 6.03671C18.6111 5.84435 19.1317 5.52882 19.5758 5.572C19.5758 5.572 19.7796 5.572 20.0063 5.73296Z" fill="#EFBB26"/>
<path d="M16.9865 6.04696C16.9865 6.04696 17.6749 5.66225 18.193 6.35415C18.7111 7.04605 19.2369 8.00146 19.2369 8.00146C19.2369 8.00146 20.1131 9.62031 20.1476 9.68606C20.1822 9.75182 20.8107 10.9835 20.8107 10.9835C20.8107 10.9835 21.2602 11.7672 20.6628 12.2235C20.6628 12.2235 20.3952 12.4188 20.0537 12.5106C19.7122 12.6023 19.6723 12.6656 19.6013 12.6828C19.5303 12.7 19.3425 12.7918 19.2457 12.4792C19.1489 12.1666 18.8444 11.274 18.6765 10.8834C18.5087 10.4933 18.1983 9.81267 18.1132 9.61197C18.028 9.41127 17.8203 8.8656 17.7464 8.57608C17.6724 8.28656 17.4958 7.81842 17.3937 7.63195C17.2915 7.44548 17.132 7.12113 16.9213 6.92043C16.7107 6.71973 16.5915 6.54454 16.611 6.42677C16.6304 6.309 16.753 6.17406 16.9865 6.04794V6.04696Z" fill="#EFBB26"/>
<path d="M15.0097 6.72326C15.0097 6.72326 15.9145 6.27917 16.2409 6.77283C16.5674 7.26648 17.155 8.27292 17.4625 8.86227C17.7699 9.45161 18.2438 10.4237 18.5439 11.1853C18.8441 11.9469 19.0294 12.494 19.0294 12.494C19.0294 12.494 19.2381 12.9945 18.9793 13.2615C18.7205 13.5284 18.5497 13.6805 18.4417 13.7492C18.3338 13.8179 17.8555 14.1855 17.7787 13.8037C17.7018 13.4219 17.8015 13.1334 17.6537 12.732C17.5058 12.3306 17.372 11.9856 17.0762 11.515C16.7804 11.0444 16.3421 10.3472 16.2682 10.2063C16.1942 10.0655 15.9126 9.61501 15.4032 9.07278C14.8939 8.53055 14.1686 7.76111 14.1258 7.67524C14.0829 7.58937 14.0518 7.49711 14.1656 7.39406C14.2795 7.29102 14.7747 6.84594 15.0107 6.72376L15.0097 6.72326Z" fill="#EFBB26"/>
<path d="M14.01 7.9299C14.01 7.9299 14.7782 8.86568 14.8862 9.01486C14.9942 9.16403 15.4836 9.89617 15.6402 10.1543C15.7969 10.4124 16.2775 11.2908 16.5222 11.8708C16.7669 12.4503 17.1337 13.4406 17.1794 13.5843C17.2251 13.7281 17.3531 14.0868 17.2334 14.3278C17.1137 14.5687 16.9177 14.8155 16.6642 14.9446C16.4108 15.0736 16.0839 15.1973 16.0839 15.1973C16.0839 15.1973 15.809 15.3583 15.6465 15.0138C15.4841 14.6693 14.9772 13.5529 14.8662 13.3321C14.7553 13.1113 14.2601 12.1495 14.1321 11.9115C14.0042 11.6735 13.6369 11.0449 13.5148 10.8555C13.3927 10.6661 12.9826 10.0434 12.7637 9.75043C12.5448 9.45748 12.4991 9.4089 12.4592 9.37749C12.4193 9.34609 11.8219 8.98738 11.8618 8.78913C11.9017 8.59089 12.1206 8.16642 12.4363 7.96818C12.752 7.76993 13.1646 7.69829 13.4209 7.66688C13.6773 7.63547 13.7683 7.64676 13.8534 7.74736C13.9385 7.84795 14.01 7.93088 14.01 7.93088V7.9299Z" fill="#EFBB26"/>
<path d="M8.72803 10.903C8.72803 10.903 9.0384 10.8343 9.24564 10.51C9.45288 10.1856 9.67228 9.77832 9.76325 9.68067C9.85422 9.58301 10.1617 9.37054 10.5173 9.22431C10.8729 9.07807 11.1915 8.92007 11.408 8.94902C11.6245 8.97797 11.7836 9.16984 11.9315 9.35925C12.0793 9.54866 12.9584 10.7627 12.9584 10.7627C12.9584 10.7627 13.9002 12.1759 14.0856 12.4973C14.2709 12.8188 14.8664 13.8939 15.0488 14.2845C15.2312 14.6751 15.3485 14.9617 15.3674 14.996C15.3864 15.0304 15.6369 15.3709 15.5153 15.5814C15.3937 15.792 15.1777 16.1477 14.9841 16.2895C14.7905 16.4314 14.5837 16.5648 14.4558 16.5305C14.3278 16.4961 14.1483 16.1629 14.0802 16.0569C14.0121 15.9509 13.5057 15.1815 13.1754 14.7855C12.8455 14.3895 12.3206 13.807 12.1377 13.623C11.9548 13.439 11.0018 12.5611 10.4837 12.1823C9.96562 11.8035 9.45093 11.4708 9.27434 11.3501C9.09775 11.2293 8.9197 11.1508 8.86279 11.0973C8.80587 11.0439 8.72609 10.933 8.72706 10.903H8.72803Z" fill="#EFBB26"/>
<path d="M8.89634 11.6809C8.89634 11.6809 10.1407 12.4233 10.4706 12.6569C10.8004 12.8905 11.4226 13.3076 12.0258 13.8812C12.6291 14.4549 13.1413 15.1021 13.4371 15.5227C13.7329 15.9437 14.0213 16.3048 14.1162 16.5355C14.2111 16.7661 14.2719 17.0802 14.0102 17.4129C13.7484 17.7456 13.5509 17.5468 13.5509 17.5468L12.6592 16.9231C12.6592 16.9231 11.2937 15.9854 11.085 15.8514C10.8763 15.7175 9.73843 14.9255 9.57887 14.7954C9.4193 14.6654 8.5923 14.08 8.13745 13.8042C7.68211 13.5289 7.59114 13.4808 7.46611 13.4465C7.34109 13.4121 7.1645 13.3861 7.10466 13.3606C7.04483 13.3351 6.97964 13.2399 7.03656 13.0078C7.09347 12.7757 7.21558 12.3507 7.48314 11.9773C7.7507 11.6043 8.17734 11.2427 8.35393 11.2599C8.35393 11.2599 8.38798 11.2628 8.47895 11.3659C8.56992 11.4689 8.63657 11.5391 8.89634 11.6804V11.6809Z" fill="#EFBB26"/>
<path d="M6.75741 14.0598C6.75741 14.0598 6.84838 13.8242 7.00405 13.836C7.15973 13.8478 7.29059 13.9356 7.61847 14.1133C7.94635 14.2909 8.56807 14.6491 8.74125 14.7551C8.91444 14.8611 10.1326 15.6246 10.4283 15.8283C10.7241 16.0319 12.4 17.2116 12.4 17.2116C12.4 17.2116 12.8495 17.5428 12.9575 17.6056C13.0655 17.6684 13.4897 17.8461 13.5549 17.9722C13.6201 18.0983 13.6089 18.2362 13.4892 18.6091C13.3696 18.9821 13.1419 19.0939 13.1078 19.0939C13.0738 19.0939 13.0052 19.091 12.9682 19.0738C12.9312 19.0567 12.0804 18.7696 11.9097 18.7181C11.7389 18.6665 10.5412 18.2646 10.4016 18.1959C10.262 18.1273 9.36199 17.6699 9.25594 17.6051C9.14989 17.5404 8.2504 17.0428 7.80285 16.9702C7.35529 16.8975 7.33632 16.9167 6.98703 16.9741C6.63823 17.0315 6.33078 17.1193 6.09921 17.1159C5.86765 17.1125 5.65555 17.112 5.67452 16.8097C5.6935 16.5074 5.73144 16.0442 5.73144 15.7346C5.73144 15.4249 5.76549 14.866 6.09581 14.5637C6.42612 14.2614 6.69125 14.2251 6.75595 14.0598H6.75741Z" fill="#EFBB26"/>
<path d="M5.26664 18.9517C5.26664 18.9517 5.21751 18.3894 5.42961 17.8648C5.6422 17.3407 5.69523 17.2946 6.07468 17.3368C6.45413 17.379 7.68296 17.5856 8.46083 17.8226C9.2387 18.0596 11.3174 18.7716 11.4731 18.8251C11.6287 18.8786 12.8162 19.2535 12.8162 19.2535C12.8162 19.2535 13.0439 19.2918 13.1198 19.6019C13.1957 19.912 13.2035 20.2295 12.9909 20.6353C12.7783 21.0411 12.699 21.1712 12.699 21.1712C12.699 21.1712 12.5852 21.4391 12.2096 21.2747C11.834 21.1103 11.1097 20.7889 10.1231 20.6201C9.13654 20.4518 8.35137 20.4327 7.64209 20.4822C6.93282 20.5318 6.31451 20.6658 6.13597 20.6927C5.95744 20.7197 5.69669 20.783 5.66847 20.7776C5.64026 20.7722 5.60718 20.7345 5.60718 20.7345C5.60718 20.7345 5.64269 20.5853 5.63442 20.4474C5.62615 20.3095 5.59015 20.0872 5.46221 19.7658C5.33426 19.4444 5.272 19.0646 5.26713 18.9517H5.26664Z" fill="#EFBB26"/>
<path d="M12.3062 21.5499C12.3062 21.5499 12.6078 21.676 12.639 21.7997C12.6701 21.9234 12.6448 22.1672 12.5592 22.4312C12.4736 22.6952 12.4682 22.8302 12.2717 22.7988C12.0752 22.7674 11.0881 22.5147 10.2859 22.4602C9.48371 22.4057 8.772 22.446 8.36823 22.4916C7.96445 22.5372 7.19583 22.6781 6.68649 22.8444C6.17715 23.0108 5.98353 23.1001 5.98353 23.1001C5.98353 23.1001 5.71062 23.2321 5.57392 23.0083C5.43722 22.7846 5.34625 22.5407 5.32631 22.4111C5.30636 22.2816 5.25528 21.7138 5.34917 21.3978C5.44306 21.0823 5.54571 21.1279 5.59971 21.1279C5.6537 21.1279 6.0064 21.1392 6.12315 21.1593C6.23991 21.1794 6.35374 21.1745 6.57557 21.1255C6.7974 21.0764 7.711 20.8693 8.41639 20.8178C9.12178 20.7663 9.77657 20.8036 10.2202 20.8865C10.6639 20.9694 11.5264 21.1996 12.3057 21.5494L12.3062 21.5499Z" fill="#EFBB26"/>
<path d="M12.0803 23.1571C12.0803 23.1571 12.3849 23.1885 12.2769 23.5649C12.1689 23.9413 12.0832 24.01 12.1202 24.6096C12.1572 25.2093 12.1601 25.5537 12.146 25.6803C12.1319 25.8069 12.0409 26.2397 11.7704 26.6534C11.5 27.0666 11.1872 27.4572 10.8744 27.681C10.5616 27.9047 10.1461 28.235 9.57694 28.1658C9.00776 28.0971 8.9056 28.0598 8.55826 27.9278C8.21092 27.7958 7.72445 27.6348 7.6651 27.6064C7.60575 27.5779 6.98792 27.282 6.59242 26.7054C6.19692 26.1283 6.086 26.0111 5.98336 25.592C5.88071 25.1729 5.86125 24.9693 5.87828 24.7858C5.8953 24.6022 5.85006 24.2808 5.83012 24.0998C5.81017 23.9187 5.76736 23.586 5.92693 23.5256C6.08649 23.4653 7.381 22.9858 8.36805 22.9171C9.3551 22.8484 10.4745 22.7562 12.0813 23.1581L12.0803 23.1571Z" fill="#EFBB26"/>
<path d="M25.8755 7.41614C25.8755 7.41614 27.168 9.77743 27.4297 13.3645C27.4297 13.3645 26.7866 13.6001 26.2291 13.8523C25.6716 14.105 24.5221 14.5756 23.9816 13.4391C23.9816 13.4391 23.7141 12.8537 23.8619 11.9925C24.0098 11.1313 24.256 9.98844 23.8576 9.2877C23.8576 9.2877 24.7887 8.11589 25.8755 7.41614Z" fill="#4F98CB"/>
<path d="M23.6839 9.52222C23.6839 9.52222 23.7647 9.96729 23.5711 10.8623C23.3775 11.7574 23.2563 12.4812 23.4573 13.0818C23.6582 13.6824 24.0225 14.1074 24.6107 14.2414C25.1988 14.3753 25.7223 14.3218 26.2156 14.2222C26.7088 14.1226 27.4789 13.7668 27.4789 13.7668C27.4789 13.7668 27.5777 15.2993 27.5397 15.8926C27.5397 15.8926 27.1262 15.7969 26.7429 15.9309C26.3596 16.0648 26.1436 16.1183 25.4513 16.639C24.7591 17.1596 24.4784 17.4732 23.5794 17.3814C22.6804 17.2897 22.4828 16.4898 22.4678 16.1532C22.4527 15.8165 22.5325 14.9131 22.2931 14.4121C22.0538 13.9111 21.7886 13.5892 21.5459 13.3787C21.5459 13.3787 22.2158 12.7472 22.5067 12.0239C22.7976 11.3005 23.2199 10.0968 23.6844 9.52222H23.6839Z" fill="#4F98CB"/>
<path d="M21.0177 13.5563C21.0177 13.5563 21.3344 13.9449 21.528 14.5799C21.7216 15.2154 21.9527 16.1487 22.317 16.7532C22.6814 17.3578 23.307 17.9319 24.1379 17.9584C24.9688 17.9854 25.7199 17.3843 25.8868 17.2621C26.0536 17.1399 26.9186 16.3818 27.5106 16.4048C27.5106 16.4048 27.3399 18.5973 26.1412 20.5607C26.1412 20.5607 25.5531 20.0557 25.0184 19.8683C24.4833 19.6808 24.0698 19.5773 22.9927 19.7039C21.9157 19.8305 20.8022 19.989 19.5957 19.3118C19.5957 19.3118 18.8728 19.0076 18.3382 17.5953C17.803 16.183 17.9359 16.478 17.625 15.8597C17.625 15.8597 20.4587 14.1814 21.0186 13.5558L21.0177 13.5563Z" fill="#4F98CB"/>
<path d="M17.37 16.0055C17.37 16.0055 17.5296 16.4476 17.7456 17.301C17.9616 18.1543 18.216 18.5905 18.4549 18.912C18.6937 19.2334 19.3616 19.9567 20.6022 20.018C21.8427 20.0794 22.0402 19.8571 23.2617 19.9032C24.4832 19.9493 25.5759 20.5843 25.9626 20.8826C25.9626 20.8826 25.3326 22.0191 25.0709 22.398C25.0709 22.398 24.3957 22.0231 23.7088 22.13C23.0219 22.237 22.4795 22.689 22.4795 22.689C22.4795 22.689 21.6335 23.4235 21.4438 23.5271C21.254 23.6306 20.6167 24.1125 19.6759 23.4201C18.7351 22.7277 18.5453 22.1727 18.3863 21.9048C18.2272 21.6369 18.0336 21.1471 17.9616 20.9597C17.8896 20.7722 17.4513 19.624 16.5182 18.9355C16.5182 18.9355 15.7715 18.3472 14.8481 18.3815C14.8481 18.3815 15.6377 16.9511 17.37 16.006V16.0055Z" fill="#4F98CB"/>
<path d="M14.6676 18.7014C14.6676 18.7014 15.4416 18.7848 16.2837 19.5999C16.2837 19.5999 16.7011 20.0018 17.4332 20.9773C18.1654 21.9533 18.3439 22.3091 18.4271 22.4431C18.5103 22.577 19.4341 24.1802 20.2937 24.3873C21.1533 24.5943 21.4661 24.3642 21.9326 24.1233C22.3991 23.8823 23.014 23.2449 23.3327 23.0673C23.6513 22.8891 24.0838 22.6771 24.7722 22.8607C24.7722 22.8607 24.22 23.7793 23.179 24.7489C22.1374 25.719 21.2175 26.2701 20.4056 26.5513C19.5936 26.8325 19.1159 26.9532 18.484 26.62C17.8526 26.2873 17.5164 25.8162 16.3727 25.4776C15.229 25.139 13.9146 24.984 13.9146 24.984C13.9146 24.984 14.1082 24.2724 14.0342 23.0324C13.9603 21.7924 13.6567 20.4724 14.6676 18.7014Z" fill="#4F98CB"/>
<path d="M13.5939 25.6096C13.5939 25.6096 13.9238 25.5409 14.0434 25.5149C14.1631 25.4889 14.8685 25.2362 15.8531 25.6096C15.8531 25.6096 16.3537 25.7931 17.1048 26.4992C17.8559 27.2054 18.3585 27.4885 18.6392 27.542C18.6392 27.542 18.1006 27.808 17.3116 28.0641C16.5225 28.3203 15.6464 28.466 14.8763 28.4925C14.1062 28.5195 13.0627 28.4886 12.5393 28.3816C12.0158 28.2746 11.4676 28.1789 11.3897 28.174C11.3119 28.1691 11.2287 28.175 11.2151 28.1539C11.2015 28.1328 11.1314 28.1078 11.3231 27.9817C11.5148 27.8556 12.4128 27.2049 12.7052 26.9139C12.997 26.6229 13.0389 26.539 13.0389 26.539C13.0389 26.539 13.5224 25.7048 13.5935 25.6091L13.5939 25.6096Z" fill="#4F98CB"/>
<path d="M20.3599 2.91333C20.3599 2.91333 20.9709 3.41827 21.1071 3.55812L20.5705 3.3957C20.5705 3.3957 20.4586 3.08017 20.3599 2.91333Z" fill="#839C4C"/>
<path d="M20.41 3.71521L21.4369 3.8845L21.6845 4.14262C21.6845 4.14262 21.4797 4.07637 21.1864 4.10238C20.8935 4.12839 20.5973 4.22555 20.1424 4.42968C19.6876 4.63382 19.2916 4.80557 19.1777 4.8198C19.1777 4.8198 19.4623 4.54156 19.5932 4.39239C19.724 4.24321 20.0057 4.00767 20.41 3.71521Z" fill="#839C4C"/>
<path d="M20.1742 3.68374C20.1742 3.68374 18.8428 3.4482 17.4427 3.33337C17.4427 3.33337 17.1868 3.49433 16.8794 3.99338C16.5719 4.49292 16.4809 4.73386 16.2134 5.07245C16.2134 5.07245 16.9363 4.99786 17.5906 5.00375C18.2449 5.00964 18.3816 4.97529 18.3816 4.97529C18.3816 4.97529 18.9449 4.61363 19.0816 4.52187C19.2183 4.43011 19.8269 4.10281 20.1742 3.68374Z" fill="#839C4C"/>
<path d="M15.0469 0.601074C15.0469 0.601074 16.5379 0.81944 17.9433 1.46767C17.9433 1.46767 18.8253 1.84649 19.4626 2.28862C19.4626 2.28862 19.8839 2.78228 20.2025 3.28722C20.2025 3.28722 18.5524 2.85098 17.471 2.73615C17.471 2.73615 16.3073 1.33567 15.0469 0.601074Z" fill="#839C4C"/>
<path d="M12.8083 3.45948C12.8083 3.45948 15.0957 3.12678 17.2867 3.33337C17.2867 3.33337 16.4447 3.94184 15.7388 5.18187C15.7388 5.18187 15.3228 5.2908 14.5717 5.72704C13.8211 6.16328 13.2748 6.58824 11.8008 7.03577C11.8008 7.03577 12.1364 6.63584 12.296 5.9405C12.4556 5.24517 12.6205 3.86726 12.8083 3.45997V3.45948Z" fill="#839C4C"/>
<path d="M7.06396 2.32302C7.06396 2.32302 8.49031 1.3892 10.8045 0.822926C10.8045 0.822926 12.5645 0.394537 14.2565 0.524575C14.2565 0.524575 15.7816 1.58058 17.1169 2.68271C17.1169 2.68271 15.2961 2.49134 14.1353 2.63659C12.9746 2.78184 12.1929 3.00413 12.1929 3.00413C12.1929 3.00413 10.9995 2.54286 10.8293 2.49723C10.659 2.45159 10.1521 2.3137 9.65687 2.3824C9.16164 2.4511 8.74619 2.48005 8.47912 2.41675C8.21204 2.35345 7.41325 2.17189 7.06396 2.32302Z" fill="#839C4C"/>
<path d="M7.26904 6.10982C7.26904 6.10982 8.29891 5.09405 9.51655 4.46839C10.7342 3.84274 11.7757 3.67639 12.5497 3.50415C12.5497 3.50415 12.4189 4.03804 12.1683 4.5317C11.9178 5.02535 11.7358 5.49594 11.6561 5.7143C11.5763 5.93267 11.4114 6.69033 10.8592 7.38468C10.8592 7.38468 10.0171 7.71198 9.24899 8.38916C9.24899 8.38916 8.73673 8.86564 8.42977 9.26753C8.12232 9.66942 8.07124 9.71506 8.07124 9.71506C8.07124 9.71506 8.14518 9.2214 7.99146 8.61292C7.83773 8.00444 7.684 7.53385 7.54779 7.16092C7.41109 6.78798 7.28607 6.34585 7.26904 6.11031V6.10982Z" fill="#839C4C"/>
<path d="M6.01545 3.03706C6.01545 3.03706 8.39042 2.92616 9.40715 3.00467C10.4239 3.08318 11.4936 3.22843 11.4936 3.22843C11.4936 3.22843 10.1354 3.66467 8.52712 4.77417C8.52712 4.77417 7.73806 5.33308 7.17667 5.83802C7.17667 5.83802 6.12978 5.89936 5.92497 5.90672C5.72016 5.91408 4.80219 5.99849 4.02043 6.41951C3.23915 6.84054 2.69284 7.14674 1.896 7.71302C1.896 7.71302 2.76095 6.30469 3.31504 5.6388C3.86913 4.9729 4.80997 3.92426 6.01594 3.03656L6.01545 3.03706Z" fill="#839C4C"/>
<path d="M7.15546 6.22803C7.15546 6.22803 7.23524 7.07205 7.53102 8.17369C7.82679 9.27533 7.82144 9.48241 7.84382 10.0276C7.84382 10.0276 6.71715 11.7039 6.66023 11.7956C6.60331 11.8874 5.64739 13.5062 5.64739 13.5062C5.64739 13.5062 5.67026 12.9036 5.40854 12.146C5.14681 11.3883 4.44678 10.5963 4.44678 10.5963C4.44678 10.5963 5.03298 9.0869 5.60215 8.23159C6.17133 7.37629 6.69428 6.66476 7.15546 6.22852V6.22803Z" fill="#839C4C"/>
<path d="M1.60301 8.29834C1.60301 8.29834 2.72579 7.62509 3.22686 7.34146C3.72744 7.05832 4.48634 6.5151 5.40432 6.26975C6.32229 6.0244 7.01406 5.97876 7.01406 5.97876C7.01406 5.97876 6.10241 6.81297 5.35859 7.762C4.61526 8.71103 4.06895 9.82837 3.96241 10.0659C3.85587 10.3034 3.81063 10.4256 3.81063 10.4256C3.81063 10.4256 3.31005 10.8922 2.48304 11.4281C1.65604 11.9639 1.22356 12.2162 0.927788 12.4075C0.632012 12.5989 0.153809 13.043 0.153809 13.043C0.153809 13.043 0.518177 11.2446 0.776008 10.3412C1.03384 9.43826 1.60301 8.29785 1.60301 8.29785V8.29834Z" fill="#839C4C"/>
<path d="M4.35726 10.8392C4.35726 10.8392 4.69099 11.4973 5.00963 12.5994C5.32827 13.7015 5.38129 14.0612 5.38129 14.0612C5.38129 14.0612 4.75909 15.3317 4.57715 16.4107C4.39521 17.4898 4.42537 18.1405 4.42537 18.1405C4.42537 18.1405 4.23954 17.3868 3.56431 16.4991C3.56431 16.4991 3.53026 15.1751 3.66696 13.836C3.80366 12.4968 4.35726 10.8397 4.35726 10.8397V10.8392Z" fill="#839C4C"/>
<path d="M3.58446 11.0042C3.58446 11.0042 2.80999 11.938 1.9071 12.5042C1.0042 13.0705 0.670484 13.2923 0.0633651 13.7825C0.0633651 13.7825 -0.156521 15.2061 0.222929 16.8824C0.602378 18.5586 0.867992 19.0253 1.30047 19.9743C1.30047 19.9743 1.59624 17.695 2.77254 16.4662C2.77254 16.4662 2.71951 14.9465 2.81826 14.2193C2.91702 13.492 3.20647 11.7471 3.58543 11.0046L3.58446 11.0042Z" fill="#839C4C"/>
<path d="M2.79082 16.7671C2.79082 16.7671 2.85163 18.2574 3.35999 19.8801C3.86836 21.5024 4.09603 22.1227 4.20986 22.5741C4.32369 23.0256 4.46769 23.5919 4.49834 24.2273C4.49834 24.2273 3.33761 22.7503 3.24664 22.6433C3.15567 22.5364 1.79257 20.9828 1.55469 20.4239C1.55469 20.4239 1.91127 19.0538 1.97938 18.8168C2.04749 18.5798 2.45758 17.3358 2.7913 16.7676L2.79082 16.7671Z" fill="#839C4C"/>
<path d="M3.58447 16.7671C3.58447 16.7671 3.83403 17.1862 4.08457 18.2039C4.3351 19.2216 4.58515 20.2933 4.58515 20.2933L4.62309 20.4194C4.62309 20.4194 4.75201 21.4372 4.78266 21.6133C4.8133 21.7895 4.86244 22.13 4.86244 22.1875C4.86244 22.2449 4.74471 23.5266 4.74471 23.5266L4.73352 23.6836C4.73352 23.6836 4.69558 22.8264 4.60072 22.3406C4.50585 21.8548 4.27089 20.8405 4.16824 20.4273C4.06559 20.0141 3.79852 18.7913 3.72993 18.2402C3.66134 17.6891 3.58447 16.7671 3.58447 16.7671Z" fill="#839C4C"/>
<path d="M40.3422 2.40137H46.6121L51.583 15.6066L56.8455 2.40137H63.1817L66.8853 27.111H60.5173L58.7304 12.8896H58.6641L52.7839 27.111H50.2495L44.6291 12.8896H44.5628L42.5161 27.111H36.1826L40.3422 2.40137Z" fill="black"/>
<path d="M86.0822 27.1083H80.1702V25.2391H80.1039C79.0647 26.9104 77.018 27.6646 75.0694 27.6646C70.1304 27.6646 66.6548 23.5035 66.6548 18.6846C66.6548 13.8657 70.0668 9.73669 75.0032 9.73669C76.9199 9.73669 78.9348 10.4587 80.1676 11.9322V10.2929H86.0796V27.103L86.0822 27.1083ZM72.763 18.7193C72.763 20.848 74.1601 22.4873 76.5647 22.4873C78.9693 22.4873 80.3664 20.848 80.3664 18.7193C80.3664 16.5907 78.9693 14.9193 76.5647 14.9193C74.1601 14.9193 72.763 16.6549 72.763 18.7193Z" fill="black"/>
<path d="M106.71 25.4717C106.71 32.6145 103.203 35.5 97.0603 35.5C93.2268 35.5 88.0942 33.4997 87.5746 29.0766H94.2024C94.3641 29.6676 94.7883 30.0928 95.3079 30.3548C95.8276 30.6169 96.4453 30.748 96.9967 30.748C100.181 30.748 100.798 28.6514 100.798 25.9317V25.1455C99.2714 26.6858 97.7125 27.44 95.5041 27.44C90.6314 27.44 87.2856 23.7041 87.2856 18.8531C87.2856 14.0021 90.7295 9.74207 95.8302 9.74207C97.7788 9.74207 99.5657 10.3972 100.735 12.0686H100.801V10.2983H106.713V25.4717H106.71ZM93.3912 18.5883C93.3912 20.7197 94.7883 22.3563 97.1929 22.3563C99.5975 22.3563 100.995 20.717 100.995 18.5883C100.995 16.4597 99.5975 14.7883 97.1929 14.7883C94.7883 14.7883 93.3912 16.5265 93.3912 18.5883Z" fill="black"/>
<path d="M115.091 3.84276C115.091 5.67726 113.595 7.18551 111.777 7.18551C109.958 7.18551 108.463 5.67726 108.463 3.84276C108.463 2.00825 109.958 0.5 111.777 0.5C113.595 0.5 115.091 2.00825 115.091 3.84276ZM114.733 27.1083H108.821V10.2983H114.733V27.1083Z" fill="black"/>
<path d="M133.089 7.84068V11.9697H140.075V17.409H133.089V27.1083H126.721V2.39868H140.788V7.83801H133.089V7.84068Z" fill="black"/>
<path d="M160.83 27.1083H154.918V25.2391H154.852C153.813 26.9104 151.766 27.6646 149.817 27.6646C144.878 27.6646 141.403 23.5035 141.403 18.6846C141.403 13.8657 144.815 9.73669 149.751 9.73669C151.668 9.73669 153.683 10.4587 154.916 11.9322V10.2929H160.828V27.103L160.83 27.1083ZM147.511 18.7193C147.511 20.848 148.908 22.4873 151.313 22.4873C153.717 22.4873 155.114 20.848 155.114 18.7193C155.114 16.5907 153.717 14.9193 151.313 14.9193C148.908 14.9193 147.511 16.6549 147.511 18.7193Z" fill="black"/>
<path d="M169.08 13.0501H169.147C170.284 10.9856 172.233 10.0684 174.539 10.0684H175.676V15.8045C174.865 15.3446 174.086 15.2483 173.174 15.2483C169.892 15.2483 169.08 17.4438 169.08 20.3266V27.1111H163.168V10.301H169.08V13.0528V13.0501Z" fill="black"/>
<path d="M182.207 12.3949H182.273C183.67 10.5256 185.391 9.73938 187.535 9.73938C189.94 9.73938 192.018 10.7235 193.219 12.9511C194.357 10.8545 196.6 9.73938 198.872 9.73938C203.095 9.73938 204.556 12.5259 204.556 16.3928V27.1084H198.644V19.0804C198.644 17.3448 198.71 14.4914 196.207 14.4914C193.479 14.4914 193.381 17.0801 193.381 19.0804V27.1084H187.469V19.0804C187.469 17.2138 187.469 14.3604 184.837 14.3604C182.204 14.3604 182.204 17.2111 182.204 19.0804V27.1084H176.292V10.2983H182.204V12.3949H182.207Z" fill="black"/>
</svg>
