<svg width="151" height="26" viewBox="0 0 151 26" fill="none" xmlns="http://www.w3.org/2000/svg">
<path d="M18.2897 4.06742C18.2897 4.06742 18.4241 4.21869 18.4179 4.43632C18.4115 4.65394 18.3066 4.8136 18.2395 4.90765C18.1723 5.0017 17.9938 5.16136 17.9454 5.18068C17.8969 5.2 17.8445 5.23171 17.7353 5.09101C17.6261 4.9503 17.1955 4.2639 17.1955 4.2639C17.1955 4.2639 16.9707 3.98904 17.1094 3.90775C17.248 3.82646 17.5819 3.79912 17.7669 3.80751C17.9518 3.81589 18.1806 3.93764 18.2897 4.06778V4.06742Z" fill="white"/>
<path d="M16.8824 3.9978C16.8824 3.9978 16.9944 4.11919 17.1539 4.41555C17.3133 4.71191 17.3661 4.82491 17.3869 4.86318C17.4077 4.90146 17.5758 5.25542 17.5801 5.5135C17.5844 5.77159 17.5758 5.94619 17.4835 6.16819C17.3912 6.38982 17.2418 6.51777 17.1916 6.55823C17.1413 6.5987 16.9772 6.7117 16.9373 6.72665C16.8975 6.74159 16.7649 6.83965 16.6791 6.71389C16.5933 6.58813 16.4902 6.34499 16.4565 6.24912C16.4227 6.15324 16.2863 5.70962 16.2169 5.52626C16.1476 5.3429 16.074 5.13403 15.8977 4.92297C15.7214 4.71191 15.4398 4.41992 15.4398 4.41992C15.4398 4.41992 15.1102 4.05758 15.0595 3.96353C15.0595 3.96353 15.2757 3.87823 15.3325 3.84397C15.3892 3.8097 15.6054 3.65624 16.0087 3.66899C16.4119 3.68175 16.6752 3.80314 16.8817 3.99743L16.8824 3.9978Z" fill="white"/>
<path d="M14.7683 3.88735C14.7683 3.88735 14.8929 4.02732 15.0358 4.23911C15.1788 4.4509 15.5027 4.95249 15.5027 4.95249C15.5027 4.95249 15.8011 5.44716 15.8869 5.59843C15.9728 5.74971 16.3006 6.353 16.3383 6.42992C16.376 6.50683 16.5337 6.81595 16.5506 6.85204C16.5674 6.88813 16.6827 7.10138 16.5506 7.24427C16.4184 7.38717 16.3344 7.42763 16.0381 7.80929C16.0381 7.80929 15.8884 8.0466 15.772 8.028C15.6557 8.00941 15.6291 7.99957 15.5199 7.76081C15.4108 7.52204 15.1138 6.86553 15.1138 6.86553C15.1138 6.86553 14.8764 6.36467 14.8344 6.27718C14.7924 6.1897 14.4207 5.5587 14.2842 5.34327C14.1478 5.12783 13.8138 4.62041 13.7592 4.54167C13.7046 4.46293 13.5157 4.25588 13.6271 4.11299C13.7384 3.97009 14.1226 3.7357 14.4505 3.76778C14.4505 3.76778 14.601 3.76778 14.7683 3.88735Z" fill="white"/>
<path d="M12.5391 4.12064C12.5391 4.12064 13.0472 3.83485 13.4297 4.34884C13.8121 4.86282 14.2003 5.57255 14.2003 5.57255C14.2003 5.57255 14.8471 6.77513 14.8726 6.82397C14.8981 6.87282 15.362 7.78778 15.362 7.78778C15.362 7.78778 15.6939 8.36993 15.2529 8.70894C15.2529 8.70894 15.0554 8.85402 14.8033 8.92219C14.5512 8.99036 14.5217 9.03738 14.4693 9.05014C14.4169 9.0629 14.2783 9.13106 14.2068 8.89886C14.1353 8.66666 13.9105 8.00358 13.7866 7.71342C13.6628 7.42362 13.4336 6.91802 13.3708 6.76893C13.308 6.61984 13.1546 6.21448 13.1 5.99941C13.0454 5.78434 12.9151 5.43658 12.8397 5.29806C12.7643 5.15954 12.6465 4.91859 12.491 4.7695C12.3355 4.62041 12.2475 4.49027 12.2619 4.40279C12.2762 4.3153 12.3667 4.21505 12.5391 4.12137V4.12064Z" fill="white"/>
<path d="M11.0799 4.62296C11.0799 4.62296 11.7479 4.29306 11.9888 4.65977C12.2298 5.02649 12.6636 5.77413 12.8906 6.21193C13.1175 6.64972 13.4673 7.37185 13.6889 7.9376C13.9104 8.50334 14.0473 8.90979 14.0473 8.90979C14.0473 8.90979 14.2013 9.28161 14.0103 9.47991C13.8192 9.67821 13.6932 9.79122 13.6135 9.84225C13.5337 9.89328 13.1807 10.1663 13.124 9.88271C13.0672 9.59911 13.1409 9.38477 13.0317 9.08659C12.9225 8.7884 12.8238 8.53214 12.6054 8.18256C12.3871 7.83298 12.0635 7.31499 12.009 7.21037C11.9544 7.10575 11.7464 6.77111 11.3705 6.36831C10.9945 5.96551 10.459 5.39393 10.4274 5.33014C10.3958 5.26635 10.3729 5.19781 10.4569 5.12126C10.5409 5.04471 10.9065 4.71409 11.0807 4.62332L11.0799 4.62296Z" fill="white"/>
<path d="M10.342 5.51932C10.342 5.51932 10.909 6.21447 10.9887 6.32529C11.0685 6.4361 11.4297 6.97998 11.5454 7.17172C11.661 7.36346 12.0158 8.01596 12.1964 8.44683C12.3771 8.87734 12.6478 9.61295 12.6816 9.71976C12.7153 9.82657 12.8098 10.093 12.7214 10.272C12.6331 10.451 12.4884 10.6344 12.3013 10.7302C12.1142 10.8261 11.8729 10.918 11.8729 10.918C11.8729 10.918 11.67 11.0375 11.55 10.7816C11.4301 10.5257 11.0559 9.69643 10.974 9.53239C10.8921 9.36836 10.5266 8.65388 10.4321 8.47709C10.3377 8.30029 10.0666 7.83333 9.97642 7.69263C9.88628 7.55192 9.58356 7.08934 9.42196 6.87171C9.26036 6.65409 9.2266 6.618 9.19716 6.59467C9.16771 6.57134 8.72672 6.30487 8.75617 6.1576C8.78562 6.01034 8.94722 5.69502 9.18028 5.54775C9.41334 5.40048 9.71786 5.34726 9.90711 5.32393C10.0964 5.3006 10.1635 5.30899 10.2264 5.38371C10.2892 5.45844 10.342 5.52005 10.342 5.52005V5.51932Z" fill="white"/>
<path d="M6.44283 7.72798C6.44283 7.72798 6.67194 7.67695 6.82492 7.436C6.9779 7.19504 7.13986 6.89249 7.20701 6.81995C7.27417 6.7474 7.50112 6.58956 7.76363 6.48094C8.02614 6.37231 8.26135 6.25493 8.42116 6.27644C8.58096 6.29794 8.69839 6.44047 8.80756 6.58118C8.91673 6.72189 9.56563 7.62373 9.56563 7.62373C9.56563 7.62373 10.2609 8.67356 10.3977 8.91233C10.5345 9.15109 10.9741 9.94977 11.1087 10.2399C11.2434 10.5301 11.3299 10.743 11.3439 10.7685C11.3579 10.794 11.5429 11.047 11.4531 11.2034C11.3633 11.3598 11.2039 11.624 11.061 11.7294C10.918 11.8347 10.7654 11.9339 10.671 11.9084C10.5765 11.8829 10.444 11.6353 10.3937 11.5566C10.3435 11.4779 9.96963 10.9063 9.7258 10.6121C9.48232 10.3179 9.09484 9.88525 8.95982 9.74855C8.8248 9.61186 8.1213 8.95972 7.73885 8.6783C7.3564 8.39689 6.97647 8.14974 6.84611 8.06007C6.71575 7.97039 6.58432 7.91207 6.54231 7.87233C6.50029 7.8326 6.4414 7.75022 6.44211 7.72798H6.44283Z" fill="white"/>
<path d="M6.5672 8.30575C6.5672 8.30575 7.4858 8.85728 7.72928 9.0308C7.97275 9.20431 8.43205 9.51416 8.87734 9.94029C9.32264 10.3664 9.70078 10.8472 9.91912 11.1596C10.1375 11.4724 10.3504 11.7407 10.4204 11.912C10.4905 12.0833 10.5353 12.3166 10.3421 12.5638C10.1489 12.8109 10.0031 12.6633 10.0031 12.6633L9.3449 12.2C9.3449 12.2 8.33689 11.5034 8.18283 11.4039C8.02877 11.3044 7.18882 10.716 7.07103 10.6194C6.95324 10.5228 6.34276 10.0879 6.00699 9.88306C5.67087 9.67856 5.60372 9.64284 5.51143 9.61732C5.41913 9.5918 5.28878 9.57248 5.24461 9.55353C5.20044 9.53457 5.15232 9.46386 5.19433 9.29143C5.23635 9.11901 5.32649 8.80333 5.52399 8.52593C5.7215 8.24889 6.03644 7.98023 6.1668 7.99299C6.1668 7.99299 6.19194 7.99518 6.25909 8.07173C6.32624 8.14828 6.37544 8.20041 6.5672 8.30539V8.30575Z" fill="white"/>
<path d="M4.98821 10.073C4.98821 10.073 5.05536 9.89803 5.17027 9.90678C5.28519 9.91553 5.38179 9.98078 5.62383 10.1127C5.86586 10.2447 6.3248 10.5108 6.45265 10.5895C6.58049 10.6683 7.47969 11.2355 7.69803 11.3868C7.91637 11.538 9.1535 12.4144 9.1535 12.4144C9.1535 12.4144 9.48531 12.6604 9.56503 12.7071C9.64476 12.7537 9.9579 12.8857 10.006 12.9794C10.0541 13.0731 10.0459 13.1755 9.95754 13.4525C9.8692 13.7296 9.70114 13.8127 9.676 13.8127C9.65086 13.8127 9.60023 13.8105 9.57294 13.7977C9.54564 13.785 8.91756 13.5717 8.79152 13.5335C8.66547 13.4952 7.78135 13.1966 7.67828 13.1456C7.57522 13.0946 6.91087 12.7548 6.83258 12.7067C6.7543 12.6586 6.09031 12.289 5.75993 12.235C5.42955 12.1811 5.41554 12.1953 5.1577 12.2379C4.90022 12.2806 4.67327 12.3458 4.50233 12.3433C4.3314 12.3407 4.17483 12.3404 4.18883 12.1158C4.20284 11.8913 4.23085 11.5472 4.23085 11.3171C4.23085 11.0871 4.25598 10.6719 4.49982 10.4474C4.74365 10.2228 4.93937 10.1959 4.98713 10.073H4.98821Z" fill="white"/>
<path d="M3.88776 13.707C3.88776 13.707 3.85149 13.2892 4.00806 12.8995C4.16499 12.5102 4.20413 12.4759 4.48424 12.5073C4.76434 12.5386 5.67145 12.6921 6.24566 12.8682C6.81988 13.0442 8.35434 13.5732 8.46926 13.6129C8.58417 13.6526 9.46075 13.9311 9.46075 13.9311C9.46075 13.9311 9.62882 13.9596 9.68484 14.1899C9.74086 14.4203 9.7466 14.6562 9.58967 14.9576C9.43274 15.2591 9.37421 15.3557 9.37421 15.3557C9.37421 15.3557 9.29018 15.5547 9.01295 15.4326C8.73572 15.3105 8.201 15.0717 7.47273 14.9463C6.74446 14.8213 6.16486 14.8071 5.64128 14.8439C5.11771 14.8807 4.66128 14.9802 4.52949 15.0003C4.39769 15.0203 4.20521 15.0674 4.18438 15.0634C4.16356 15.0593 4.13914 15.0313 4.13914 15.0313C4.13914 15.0313 4.16535 14.9205 4.15925 14.818C4.15314 14.7156 4.12657 14.5505 4.03212 14.3117C3.93768 14.0729 3.89171 13.7908 3.88812 13.707H3.88776Z" fill="white"/>
<path d="M9.08412 15.6371C9.08412 15.6371 9.30677 15.7308 9.32975 15.8227C9.35273 15.9145 9.33406 16.0957 9.27086 16.2918C9.20765 16.4879 9.2037 16.5882 9.05862 16.5648C8.91354 16.5415 8.18491 16.3538 7.59275 16.3133C7.00058 16.2729 6.4752 16.3027 6.17714 16.3366C5.87908 16.3705 5.31169 16.4752 4.93571 16.5987C4.55972 16.7223 4.4168 16.7887 4.4168 16.7887C4.4168 16.7887 4.21534 16.8867 4.11443 16.7205C4.01352 16.5543 3.94636 16.3731 3.93164 16.2769C3.91692 16.1806 3.87921 15.7589 3.94852 15.5241C4.01783 15.2897 4.0936 15.3236 4.13346 15.3236C4.17332 15.3236 4.43367 15.332 4.51986 15.347C4.60605 15.3619 4.69008 15.3583 4.85383 15.3218C5.01758 15.2854 5.69199 15.1315 6.21269 15.0932C6.7334 15.055 7.21676 15.0827 7.54427 15.1443C7.87177 15.2059 8.50847 15.3768 9.08376 15.6368L9.08412 15.6371Z" fill="white"/>
<path d="M8.91747 16.831C8.91747 16.831 9.14227 16.8543 9.06255 17.1339C8.98282 17.4135 8.91962 17.4645 8.94691 17.91C8.97421 18.3554 8.97636 18.6113 8.96595 18.7053C8.95553 18.7994 8.88838 19.1209 8.68871 19.4282C8.48905 19.7351 8.25815 20.0253 8.02724 20.1915C7.79633 20.3577 7.48965 20.6031 7.0695 20.5517C6.64934 20.5006 6.57393 20.4729 6.31753 20.3749C6.06112 20.2768 5.70202 20.1573 5.65821 20.1361C5.61439 20.115 5.15833 19.8952 4.86637 19.4668C4.57442 19.0382 4.49254 18.951 4.41677 18.6397C4.341 18.3284 4.32663 18.1771 4.3392 18.0408C4.35177 17.9045 4.31837 17.6657 4.30365 17.5312C4.28893 17.3967 4.25733 17.1495 4.37511 17.1047C4.4929 17.0599 5.44849 16.7037 6.17712 16.6527C6.90575 16.6017 7.73205 16.5331 8.91819 16.8317L8.91747 16.831Z" fill="white"/>
<path d="M19.1007 5.13766C19.1007 5.13766 20.0549 6.89177 20.2481 9.55646C20.2481 9.55646 19.7733 9.73143 19.3618 9.9188C18.9503 10.1065 18.1017 10.4561 17.7027 9.61187C17.7027 9.61187 17.5052 9.17699 17.6144 8.53724C17.7235 7.8975 17.9053 7.04851 17.6111 6.52797C17.6111 6.52797 18.2985 5.65748 19.1007 5.13766Z" fill="white"/>
<path d="M17.483 6.70221C17.483 6.70221 17.5426 7.03284 17.3997 7.69773C17.2568 8.36263 17.1674 8.90031 17.3157 9.34649C17.464 9.79267 17.733 10.1083 18.1671 10.2079C18.6013 10.3074 18.9877 10.2676 19.3518 10.1936C19.716 10.1196 20.2844 9.85537 20.2844 9.85537C20.2844 9.85537 20.3573 10.9938 20.3293 11.4345C20.3293 11.4345 20.0241 11.3634 19.7411 11.4629C19.4581 11.5624 19.2987 11.6022 18.7877 11.9889C18.2767 12.3757 18.0695 12.6086 17.4058 12.5405C16.7422 12.4723 16.5964 11.8781 16.5853 11.6281C16.5741 11.378 16.633 10.7069 16.4563 10.3347C16.2797 9.96254 16.0839 9.72341 15.9048 9.56703C15.9048 9.56703 16.3992 9.09788 16.614 8.56057C16.8287 8.02325 17.1404 7.12907 17.4834 6.70221H17.483Z" fill="white"/>
<path d="M15.5151 9.69897C15.5151 9.69897 15.7489 9.98768 15.8918 10.4594C16.0348 10.9314 16.2053 11.6248 16.4743 12.0739C16.7433 12.523 17.2051 12.9495 17.8184 12.9691C18.4318 12.9892 18.9863 12.5426 19.1094 12.4519C19.2326 12.3611 19.8711 11.7979 20.3081 11.8151C20.3081 11.8151 20.1821 13.4438 19.2973 14.9022C19.2973 14.9022 18.8631 14.5271 18.4684 14.3879C18.0734 14.2486 17.7682 14.1717 16.9731 14.2658C16.178 14.3598 15.356 14.4776 14.4655 13.9745C14.4655 13.9745 13.9318 13.7485 13.5372 12.6994C13.1421 11.6503 13.2402 11.8694 13.0107 11.4101C13.0107 11.4101 15.1025 10.1634 15.5158 9.69861L15.5151 9.69897Z" fill="white"/>
<path d="M12.8224 11.5183C12.8224 11.5183 12.9402 11.8468 13.0996 12.4807C13.2591 13.1146 13.4469 13.4387 13.6232 13.6774C13.7995 13.9162 14.2926 14.4535 15.2083 14.4991C16.124 14.5446 16.2698 14.3795 17.1716 14.4138C18.0733 14.448 18.8798 14.9197 19.1653 15.1414C19.1653 15.1414 18.7003 15.9856 18.5071 16.267C18.5071 16.267 18.0086 15.9885 17.5016 16.068C16.9945 16.1475 16.5941 16.4832 16.5941 16.4832C16.5941 16.4832 15.9696 17.0289 15.8296 17.1058C15.6895 17.1827 15.2191 17.5407 14.5246 17.0263C13.8301 16.512 13.69 16.0997 13.5726 15.9007C13.4551 15.7016 13.3122 15.3379 13.2591 15.1986C13.2059 15.0594 12.8824 14.2064 12.1936 13.6949C12.1936 13.6949 11.6424 13.2579 10.9608 13.2834C10.9608 13.2834 11.5436 12.2208 12.8224 11.5187V11.5183Z" fill="white"/>
<path d="M10.8276 13.5211C10.8276 13.5211 11.3989 13.583 12.0205 14.1885C12.0205 14.1885 12.3286 14.4871 12.8691 15.2117C13.4096 15.9368 13.5413 16.2011 13.6028 16.3006C13.6642 16.4001 14.3461 17.591 14.9806 17.7448C15.6152 17.8987 15.8461 17.7277 16.1905 17.5487C16.5349 17.3697 16.9888 16.8962 17.224 16.7643C17.4592 16.6319 17.7785 16.4745 18.2866 16.6108C18.2866 16.6108 17.879 17.2932 17.1105 18.0135C16.3417 18.7342 15.6626 19.1435 15.0632 19.3524C14.4639 19.5613 14.1112 19.6509 13.6448 19.4034C13.1786 19.1563 12.9305 18.8063 12.0862 18.5548C11.242 18.3033 10.2717 18.1881 10.2717 18.1881C10.2717 18.1881 10.4146 17.6595 10.36 16.7384C10.3054 15.8172 10.0813 14.8366 10.8276 13.5211Z" fill="white"/>
<path d="M10.035 18.6529C10.035 18.6529 10.2785 18.6018 10.3668 18.5825C10.4552 18.5632 10.9759 18.3755 11.7027 18.6529C11.7027 18.6529 12.0722 18.7892 12.6267 19.3137C13.1812 19.8383 13.5521 20.0486 13.7593 20.0884C13.7593 20.0884 13.3618 20.2859 12.7793 20.4762C12.1969 20.6665 11.5501 20.7748 10.9816 20.7945C10.4132 20.8145 9.64288 20.7915 9.25648 20.7121C8.87008 20.6326 8.46536 20.5615 8.40791 20.5579C8.35045 20.5542 8.28904 20.5586 8.27898 20.5429C8.26893 20.5273 8.21722 20.5087 8.35871 20.415C8.50019 20.3213 9.16311 19.8379 9.37893 19.6218C9.5944 19.4056 9.62528 19.3433 9.62528 19.3433C9.62528 19.3433 9.98223 18.7236 10.0347 18.6525L10.035 18.6529Z" fill="white"/>
<path d="M15.0294 1.79276C15.0294 1.79276 15.4805 2.16785 15.581 2.27174L15.1849 2.15108C15.1849 2.15108 15.1023 1.91669 15.0294 1.79276Z" fill="white"/>
<path d="M15.0665 2.3884L15.8246 2.51416L16.0073 2.7059C16.0073 2.7059 15.8562 2.65669 15.6396 2.67601C15.4234 2.69533 15.2047 2.76751 14.869 2.91915C14.5332 3.07079 14.2409 3.19838 14.1569 3.20895C14.1569 3.20895 14.3669 3.00226 14.4635 2.89144C14.5601 2.78063 14.7681 2.60566 15.0665 2.3884Z" fill="white"/>
<path d="M14.8923 2.36507C14.8923 2.36507 13.9094 2.1901 12.8759 2.1048C12.8759 2.1048 12.687 2.22436 12.46 2.59509C12.2331 2.96617 12.1659 3.14516 11.9684 3.39668C11.9684 3.39668 12.502 3.34127 12.985 3.34565C13.468 3.35002 13.569 3.3245 13.569 3.3245C13.569 3.3245 13.9848 3.05585 14.0857 2.98768C14.1866 2.91951 14.6359 2.67638 14.8923 2.36507Z" fill="white"/>
<path d="M11.1073 0.0751343C11.1073 0.0751343 12.208 0.237349 13.2454 0.718889C13.2454 0.718889 13.8965 1.0003 14.3669 1.32874C14.3669 1.32874 14.6779 1.69546 14.9131 2.07055C14.9131 2.07055 13.695 1.74649 12.8967 1.66119C12.8967 1.66119 12.0377 0.620831 11.1073 0.0751343Z" fill="white"/>
<path d="M9.45477 2.19848C9.45477 2.19848 11.1433 1.95133 12.7607 2.1048C12.7607 2.1048 12.1391 2.55681 11.618 3.47797C11.618 3.47797 11.311 3.55889 10.7565 3.88296C10.2024 4.20702 9.79916 4.5227 8.71106 4.85515C8.71106 4.85515 8.95884 4.55806 9.07663 4.04153C9.19442 3.52499 9.31616 2.5014 9.45477 2.19884V2.19848Z" fill="white"/>
<path d="M5.21466 1.35425C5.21466 1.35425 6.26756 0.660552 7.97584 0.239888C7.97584 0.239888 9.27509 -0.0783442 10.5241 0.0182554C10.5241 0.0182554 11.6499 0.802717 12.6356 1.62144C12.6356 1.62144 11.2915 1.47928 10.4347 1.58718C9.57782 1.69508 9.00073 1.86021 9.00073 1.86021C9.00073 1.86021 8.11984 1.51755 7.99416 1.48365C7.86847 1.44975 7.49428 1.34732 7.12871 1.39835C6.76313 1.44939 6.45646 1.47089 6.25931 1.42387C6.06216 1.37685 5.4725 1.24197 5.21466 1.35425Z" fill="white"/>
<path d="M5.36591 4.1673C5.36591 4.1673 6.12614 3.41273 7.02498 2.94795C7.92383 2.48318 8.69268 2.35961 9.26402 2.23166C9.26402 2.23166 9.16742 2.62826 8.98248 2.99498C8.79754 3.36169 8.66323 3.71127 8.60434 3.87349C8.54545 4.0357 8.42371 4.59853 8.01612 5.11434C8.01612 5.11434 7.39451 5.35748 6.82747 5.86052C6.82747 5.86052 6.44933 6.21448 6.22274 6.51303C5.99578 6.81157 5.95807 6.84547 5.95807 6.84547C5.95807 6.84547 6.01266 6.47876 5.89918 6.02675C5.7857 5.57473 5.67222 5.22515 5.57167 4.94811C5.47077 4.67107 5.37847 4.34263 5.36591 4.16766V4.1673Z" fill="white"/>
<path d="M4.44052 1.88463C4.44052 1.88463 6.19369 1.80225 6.94422 1.86057C7.69476 1.91889 8.48444 2.02679 8.48444 2.02679C8.48444 2.02679 7.48181 2.35086 6.2946 3.17505C6.2946 3.17505 5.71212 3.59025 5.29771 3.96535C5.29771 3.96535 4.52491 4.01091 4.37373 4.01638C4.22254 4.02185 3.54491 4.08455 2.96782 4.39731C2.39109 4.71008 1.98782 4.93754 1.3996 5.3582C1.3996 5.3582 2.03809 4.31201 2.44711 3.81735C2.85614 3.32269 3.55065 2.54369 4.44088 1.88426L4.44052 1.88463Z" fill="white"/>
<path d="M5.28189 4.25516C5.28189 4.25516 5.34079 4.88214 5.55912 5.70051C5.77746 6.51887 5.77351 6.6727 5.79003 7.07769C5.79003 7.07769 4.95834 8.32291 4.91632 8.39108C4.8743 8.45924 4.16866 9.66182 4.16866 9.66182C4.16866 9.66182 4.18554 9.21418 3.99234 8.65135C3.79914 8.08852 3.28238 7.50017 3.28238 7.50017C3.28238 7.50017 3.7151 6.37889 4.13526 5.74352C4.55542 5.10815 4.94146 4.57959 5.28189 4.25552V4.25516Z" fill="white"/>
<path d="M1.18328 5.79309C1.18328 5.79309 2.0121 5.29296 2.38198 5.08227C2.7515 4.87194 3.31171 4.4684 3.98935 4.28614C4.66698 4.10388 5.17763 4.06998 5.17763 4.06998C5.17763 4.06998 4.50467 4.68967 3.95559 5.39467C3.40687 6.09966 3.00359 6.92969 2.92495 7.10612C2.84631 7.28255 2.81291 7.37332 2.81291 7.37332C2.81291 7.37332 2.44339 7.71998 1.8329 8.11805C1.22242 8.51611 0.903173 8.70348 0.684835 8.84564C0.466498 8.98781 0.113495 9.3177 0.113495 9.3177C0.113495 9.3177 0.382467 7.98171 0.572794 7.31062C0.763121 6.63989 1.18328 5.79273 1.18328 5.79273V5.79309Z" fill="white"/>
<path d="M3.21654 7.6806C3.21654 7.6806 3.46289 8.16943 3.69811 8.98816C3.93332 9.80689 3.97247 10.0741 3.97247 10.0741C3.97247 10.0741 3.51317 11.0178 3.37886 11.8194C3.24455 12.621 3.26682 13.1044 3.26682 13.1044C3.26682 13.1044 3.12964 12.5445 2.6312 11.8851C2.6312 11.8851 2.60606 10.9016 2.70697 9.90677C2.80788 8.91197 3.21654 7.68097 3.21654 7.68097V7.6806Z" fill="white"/>
<path d="M2.646 7.80307C2.646 7.80307 2.0743 8.49676 1.40779 8.91743C0.74129 9.33809 0.494942 9.50286 0.0467752 9.86702C0.0467752 9.86702 -0.115541 10.9245 0.164563 12.1697C0.444667 13.415 0.64074 13.7616 0.959986 14.4666C0.959986 14.4666 1.17832 12.7734 2.04665 11.8606C2.04665 11.8606 2.0075 10.7317 2.0804 10.1914C2.1533 9.65122 2.36697 8.35496 2.64672 7.80343L2.646 7.80307Z" fill="white"/>
<path d="M2.06005 12.0841C2.06005 12.0841 2.10493 13.1911 2.4802 14.3966C2.85547 15.6018 3.02353 16.0625 3.10756 16.3979C3.19159 16.7333 3.29789 17.1539 3.32051 17.626C3.32051 17.626 2.46368 16.5288 2.39653 16.4493C2.32938 16.3698 1.32316 15.2157 1.14755 14.8005C1.14755 14.8005 1.41078 13.7828 1.46105 13.6067C1.51133 13.4306 1.81406 12.5066 2.0604 12.0844L2.06005 12.0841Z" fill="white"/>
<path d="M2.646 12.0841C2.646 12.0841 2.83022 12.3954 3.01516 13.1514C3.2001 13.9074 3.38468 14.7036 3.38468 14.7036L3.41269 14.7972C3.41269 14.7972 3.50785 15.5533 3.53048 15.6841C3.5531 15.815 3.58937 16.068 3.58937 16.1106C3.58937 16.1533 3.50247 17.1054 3.50247 17.1054L3.49421 17.2221C3.49421 17.2221 3.4662 16.5853 3.39617 16.2244C3.32615 15.8635 3.1527 15.11 3.07693 14.8031C3.00115 14.4961 2.804 13.5877 2.75337 13.1784C2.70274 12.769 2.646 12.0841 2.646 12.0841Z" fill="white"/>
<path d="M29.7801 1.41245H34.4085L38.0779 11.222L41.9626 1.41245H46.6398L49.3738 19.7682H44.673L43.354 9.2037H43.3051L38.9644 19.7682H37.0935L32.9446 9.2037H32.8957L31.3849 19.7682H26.7095L29.7801 1.41245Z" fill="white"/>
<path d="M63.5445 19.7662H59.1804V18.3776H59.1315C58.3643 19.6192 56.8535 20.1794 55.4151 20.1794C51.7691 20.1794 49.2035 17.0883 49.2035 13.5086C49.2035 9.9288 51.7222 6.86157 55.3662 6.86157C56.7811 6.86157 58.2684 7.39793 59.1784 8.49252V7.27477H63.5426V19.7622L63.5445 19.7662ZM53.7125 13.5344C53.7125 15.1157 54.7438 16.3335 56.5188 16.3335C58.2939 16.3335 59.3252 15.1157 59.3252 13.5344C59.3252 11.9531 58.2939 10.7115 56.5188 10.7115C54.7438 10.7115 53.7125 12.0008 53.7125 13.5344Z" fill="white"/>
<path d="M78.7722 18.5504C78.7722 23.8565 76.183 26 71.6486 26C68.8188 26 65.03 24.5141 64.6464 21.2283H69.5389C69.6583 21.6673 69.9714 21.9832 70.355 22.1779C70.7386 22.3725 71.1946 22.4699 71.6016 22.4699C73.952 22.4699 74.408 20.9124 74.408 18.8921V18.3081C73.2808 19.4523 72.13 20.0125 70.4998 20.0125C66.9028 20.0125 64.4331 17.2373 64.4331 13.6337C64.4331 10.0301 66.9752 6.86551 70.7406 6.86551C72.179 6.86551 73.498 7.35222 74.361 8.59381H74.41V7.27872H78.7741V18.5504H78.7722ZM68.9401 13.437C68.9401 15.0203 69.9714 16.2361 71.7465 16.2361C73.5215 16.2361 74.5528 15.0183 74.5528 13.437C74.5528 11.8557 73.5215 10.6141 71.7465 10.6141C69.9714 10.6141 68.9401 11.9054 68.9401 13.437Z" fill="white"/>
<path d="M84.9584 2.48319C84.9584 3.84597 83.8547 4.96638 82.5121 4.96638C81.1696 4.96638 80.0659 3.84597 80.0659 2.48319C80.0659 1.12042 81.1696 0 82.5121 0C83.8547 0 84.9584 1.12042 84.9584 2.48319ZM84.6942 19.7662H80.3301V7.27873H84.6942V19.7662Z" fill="white"/>
<path d="M98.2445 5.45309V8.52033H103.401V12.561H98.2445V19.7662H93.5438V1.41046H103.928V5.4511H98.2445V5.45309Z" fill="white"/>
<path d="M118.723 19.7662H114.358V18.3776H114.309C113.542 19.6192 112.032 20.1794 110.593 20.1794C106.947 20.1794 104.382 17.0883 104.382 13.5086C104.382 9.9288 106.9 6.86157 110.544 6.86157C111.959 6.86157 113.446 7.39793 114.356 8.49252V7.27477H118.721V19.7622L118.723 19.7662ZM108.891 13.5344C108.891 15.1157 109.922 16.3335 111.697 16.3335C113.472 16.3335 114.503 15.1157 114.503 13.5344C114.503 11.9531 113.472 10.7115 111.697 10.7115C109.922 10.7115 108.891 12.0008 108.891 13.5344Z" fill="white"/>
<path d="M124.813 9.32288H124.862C125.701 7.78926 127.14 7.10788 128.842 7.10788H129.682V11.369C129.083 11.0274 128.508 10.9558 127.834 10.9558C125.412 10.9558 124.813 12.5868 124.813 14.7283V19.7682H120.449V7.28071H124.813V9.32487V9.32288Z" fill="white"/>
<path d="M134.502 8.83618H134.551C135.583 7.44758 136.853 6.86353 138.436 6.86353C140.211 6.86353 141.745 7.59458 142.632 9.24938C143.471 7.69192 145.127 6.86353 146.804 6.86353C149.922 6.86353 151 8.93351 151 11.8061V19.7662H146.636V13.8026C146.636 12.5133 146.685 10.3936 144.837 10.3936C142.824 10.3936 142.751 12.3166 142.751 13.8026V19.7662H138.387V13.8026C138.387 12.416 138.387 10.2963 136.444 10.2963C134.5 10.2963 134.5 12.414 134.5 13.8026V19.7662H130.136V7.27872H134.5V8.83618H134.502Z" fill="white"/>
</svg>
